<?xml version="1.0" standalone="no"?>
<!DOCTYPE svg PUBLIC "-//W3C//DTD SVG 20010904//EN"
 "http://www.w3.org/TR/2001/REC-SVG-20010904/DTD/svg10.dtd">
<svg version="1.0" xmlns="http://www.w3.org/2000/svg"
 width="700.000000pt" height="700.000000pt" viewBox="0 0 700.000000 700.000000"
 preserveAspectRatio="xMidYMid meet">
<metadata>
Created by potrace 1.14, written by Peter Selinger 2001-2017
</metadata>
<g transform="translate(0.000000,700.000000) scale(0.100000,-0.100000)"
fill="#000000" stroke="none">
<path d="M3276 6762 c-3 -6 -14 -10 -24 -10 -16 1 -114 -8 -191 -18 -66 -8
-266 -44 -296 -54 -16 -5 -41 -11 -55 -14 -71 -12 -349 -101 -392 -126 -10 -6
-22 -10 -28 -10 -38 0 -379 -173 -530 -269 -105 -67 -275 -191 -375 -273 -71
-59 -348 -341 -410 -418 -374 -465 -620 -1013 -700 -1560 -3 -19 -8 -53 -11
-75 -4 -22 -8 -49 -10 -60 -23 -120 -22 -615 1 -755 2 -14 9 -59 14 -100 6
-41 13 -86 16 -100 3 -14 8 -40 11 -59 47 -280 202 -699 360 -973 38 -65 174
-279 184 -288 3 -3 25 -32 49 -65 162 -219 412 -471 630 -635 18 -14 45 -34
59 -46 115 -90 396 -253 582 -337 182 -83 462 -176 610 -203 14 -3 41 -9 60
-14 19 -5 51 -11 70 -14 19 -3 44 -7 55 -10 19 -4 103 -16 155 -22 229 -28
618 -26 825 6 33 5 78 11 100 15 34 4 97 16 115 20 3 1 23 5 45 9 22 4 54 12
71 17 17 5 40 11 51 13 49 10 245 72 347 111 259 98 499 226 726 388 76 54
154 114 186 142 7 6 38 33 70 60 304 262 579 615 769 990 58 114 170 377 180
420 1 6 10 37 20 70 11 33 20 62 20 65 1 3 7 25 14 50 7 25 14 52 16 60 2 8 8
33 14 55 20 78 45 214 57 310 3 28 7 61 10 75 26 156 23 579 -6 782 -6 40 -13
87 -15 103 -7 54 -44 235 -49 244 -3 5 -8 26 -12 46 -8 52 -68 240 -111 350
-19 50 -40 104 -46 120 -21 56 -171 350 -194 381 -13 17 -23 34 -23 38 0 15
-165 252 -245 352 -124 154 -418 444 -519 513 -12 8 -23 18 -26 21 -10 13
-214 153 -292 202 -116 71 -306 169 -418 216 -99 41 -238 95 -255 98 -5 1 -32
10 -60 19 -50 16 -263 72 -300 79 -18 4 -57 11 -120 22 -11 2 -40 7 -65 10
-25 3 -52 7 -60 9 -14 4 -169 18 -197 18 -7 0 -13 5 -13 10 0 5 -7 4 -15 -3
-10 -9 -15 -9 -15 -1 0 6 -5 11 -11 11 -5 0 -7 -6 -3 -12 6 -10 5 -10 -7 -1
-19 15 -319 15 -338 0 -12 -9 -13 -9 -7 1 4 6 3 12 -3 12 -5 0 -13 -5 -17 -11
-5 -8 -9 -8 -14 1 -5 8 -10 9 -14 2z m412 -1316 c77 -7 159 -20 207 -32 6 -1
21 -4 35 -7 239 -47 524 -179 748 -346 86 -65 261 -233 336 -321 61 -73 181
-258 230 -355 71 -138 146 -346 162 -445 3 -19 8 -39 11 -43 3 -5 7 -25 9 -45
2 -21 6 -48 9 -61 25 -99 25 -531 0 -604 -2 -6 -7 -29 -10 -51 -3 -21 -7 -42
-10 -46 -3 -4 -7 -25 -11 -46 -11 -70 -83 -275 -135 -383 -62 -131 -128 -239
-216 -356 -96 -126 -243 -272 -368 -365 -33 -25 -61 -48 -63 -52 -2 -5 -7 -8
-12 -8 -4 0 -34 -18 -66 -39 -173 -115 -457 -228 -664 -265 -19 -3 -46 -8 -60
-11 -103 -21 -361 -32 -475 -20 -22 2 -65 7 -95 10 -76 7 -220 38 -310 66 -41
12 -78 22 -82 21 -5 -1 -8 2 -8 7 0 5 26 12 57 16 73 9 237 67 316 112 185
104 338 262 436 450 35 69 84 213 96 283 4 25 9 54 11 65 6 30 5 236 -1 270
-28 155 -50 223 -107 340 -100 201 -270 371 -475 474 -65 32 -187 76 -238 85
-17 3 -52 10 -80 15 -46 9 -291 8 -325 -1 -8 -3 -42 -10 -74 -17 -289 -63
-563 -279 -703 -554 -41 -83 -88 -222 -98 -297 l-8 -55 -25 75 c-26 83 -25 79
-37 135 -5 22 -10 42 -10 45 -3 10 -15 76 -20 105 -26 154 -26 473 0 606 3 13
8 40 11 59 25 146 91 345 165 495 215 440 600 794 1054 968 87 33 178 63 220
71 11 3 41 9 68 15 26 6 64 14 85 17 20 3 43 7 50 9 7 3 54 8 105 11 51 4 93
7 94 8 5 4 207 -2 271 -8z"/>
</g>
</svg>
